<svg width="66" height="24" viewBox="0 0 66 24" fill="none" xmlns="http://www.w3.org/2000/svg">
<path d="M18.406 1.11289V4.86486H21.3653V7.62814H18.406V11.6844H15.1149V1.11289H18.406ZM18.406 17.1096C18.406 17.7011 18.2359 18.1913 17.8957 18.58C17.5555 18.9687 17.0878 19.163 16.4925 19.163H4.98659V19.9996C4.98197 20.0469 4.98884 20.0947 5.0066 20.1388C5.02437 20.1829 5.05252 20.2221 5.08866 20.253L5.19073 20.3544C5.20774 20.4051 5.26728 20.4304 5.36935 20.4304H18.7886V23.143H4.2978C3.87252 23.143 3.56212 23.0923 3.3666 22.9908C3.13143 22.8579 2.92016 22.6866 2.74152 22.484L2.33333 22.0783C2.13572 21.8685 1.97216 21.6289 1.8486 21.3685C1.76354 21.1657 1.72101 20.8278 1.72101 20.3548V17.5658C1.71423 17.4473 1.73621 17.329 1.78507 17.2208C1.83393 17.1127 1.90822 17.0179 2.00161 16.9447C2.21724 16.7923 2.47768 16.7164 2.74143 16.7292H14.8853C15.0724 16.7292 15.1659 16.6447 15.1659 16.4758V15.5631H1.7211V12.8758H17.4365C18.0828 12.8758 18.406 13.1631 18.406 13.7377V17.1096ZM6.00719 0.859375C6.94264 0.859375 7.77177 0.998816 8.49458 1.2777C9.17469 1.53017 9.79873 1.91345 10.3315 2.40587C10.8224 2.86351 11.2095 3.42107 11.4667 4.04098C11.7214 4.65573 11.8515 5.31494 11.8494 5.98036V6.46204C11.8498 7.11901 11.7197 7.76952 11.4667 8.37583C11.2095 8.99576 10.8224 9.55335 10.3315 10.011C9.79724 10.5046 9.17382 10.8918 8.49458 11.1519C7.77171 11.4392 6.94258 11.5829 6.00719 11.5829C5.05472 11.5829 4.22134 11.4393 3.50703 11.1519C2.83546 10.8918 2.2204 10.5044 1.69558 10.0112C1.21215 9.55245 0.83357 8.99466 0.585761 8.376C0.340825 7.76771 0.215237 7.11797 0.21585 6.46222V5.98036C0.213585 5.31615 0.339173 4.65772 0.585761 4.04098C0.83357 3.42232 1.21215 2.86452 1.69558 2.40578C2.21886 1.91369 2.83452 1.53023 3.50695 1.27761C4.22125 0.998787 5.05467 0.859375 6.00719 0.859375ZM8.66044 5.98028C8.65859 5.68398 8.59787 5.39101 8.48182 5.11837C8.36089 4.82829 8.18305 4.56537 7.95881 4.34517C7.72053 4.11128 7.43888 3.92614 7.12968 3.80014C6.77271 3.65862 6.39111 3.58967 6.00719 3.59731C5.62321 3.58965 5.24155 3.6586 4.88452 3.80014C4.58058 3.92211 4.3064 4.10799 4.08056 4.34517C3.66733 4.79001 3.43528 5.37323 3.42996 5.98036V6.46204C3.43528 7.06918 3.66733 7.6524 4.08056 8.09724C4.3064 8.33442 4.58058 8.5203 4.88452 8.64227C5.24156 8.78377 5.62321 8.8527 6.00719 8.84501C6.39105 8.85277 6.77262 8.78397 7.12959 8.64262C7.4388 8.51661 7.72044 8.33147 7.95872 8.09758C8.18297 7.87738 8.3608 7.61447 8.48174 7.32438C8.5978 7.05172 8.65851 6.75872 8.66036 6.46239L8.66044 5.98028ZM27.2843 12.5463V16.4758C27.2852 16.595 27.3105 16.7128 27.3588 16.8218C27.4071 16.9308 27.4772 17.0288 27.5649 17.1096L28.3047 18.0476C28.3741 18.1283 28.4603 18.1927 28.5572 18.2365C28.6542 18.2803 28.7596 18.3023 28.866 18.301H36.3918V21.1149H28.075C27.5648 21.1149 27.1694 21.0642 26.8888 20.9628C26.6081 20.8613 26.2978 20.6248 25.9577 20.2531L24.7587 18.808C24.6257 18.664 24.5022 18.5116 24.3888 18.3517C24.2957 18.2175 24.2187 18.0728 24.1591 17.9207C24.0954 17.7497 24.0568 17.5704 24.0443 17.3883C24.0273 17.1856 24.0188 16.9321 24.0188 16.6281V10.67C24.0188 10.0954 24.3164 9.80811 24.9117 9.80811H31.5959C31.851 9.80811 31.9785 9.68134 31.9785 9.4278V4.50998H24.07V1.72154H34.351C34.9633 1.72154 35.2695 2.03421 35.2695 2.65956V10.721C35.2695 11.9379 34.6487 12.5463 33.4071 12.5463H27.2843ZM42.5404 1.11289V22.839H39.2748V1.11289H42.5404ZM65.7563 1.11289V22.839H62.4908V1.11289H65.7563ZM51.6226 21.0896C51.3755 21.0919 51.1284 21.0792 50.8828 21.0516C50.6905 21.0291 50.5019 20.9821 50.3215 20.9118C50.1477 20.842 49.9845 20.7482 49.8368 20.633C49.6538 20.4866 49.4831 20.3255 49.3265 20.1513L48.0764 18.7823C47.9281 18.6236 47.7917 18.4542 47.6683 18.2754C47.5692 18.1292 47.4879 17.9718 47.4259 17.8064C47.361 17.622 47.3181 17.4305 47.2983 17.236C47.2707 16.975 47.2579 16.7126 47.2601 16.4502V2.65929C47.2601 2.03395 47.5577 1.72128 48.153 1.72128H57.8476C58.4599 1.72128 58.766 2.03395 58.766 2.65929V20.1264C58.766 20.7686 58.4599 21.0897 57.8476 21.0897L51.6226 21.0896ZM55.4749 18.2249V4.56067H50.5256V16.2476C50.5223 16.3763 50.5396 16.5047 50.5767 16.6279C50.6345 16.7636 50.7216 16.8848 50.8318 16.9828L51.6992 17.9461C51.7883 18.0437 51.897 18.1214 52.018 18.1743C52.1206 18.2096 52.2285 18.2267 52.3369 18.225L55.4749 18.2249Z" fill="white"/>
</svg>
