<svg width="101" height="101" viewBox="0 0 101 101" fill="none" xmlns="http://www.w3.org/2000/svg">
<g clip-path="url(#clip0_132_953)">
<path d="M50.3332 99.5141C77.2739 99.5141 99.1137 77.6743 99.1137 50.7336C99.1137 23.7929 77.2739 1.95312 50.3332 1.95312C23.3925 1.95312 1.55273 23.7929 1.55273 50.7336C1.55273 77.6743 23.3925 99.5141 50.3332 99.5141Z" fill="#BEBEBE" stroke="#BEBEBE" stroke-width="2.43902" stroke-miterlimit="10"/>
<path d="M45.455 75.1232V51.9525H37.3818V43.3427H45.2843V39.05C45.2913 37.3633 45.6335 35.6947 46.2908 34.1413C46.9482 32.5879 47.9077 31.1807 49.1135 30.0012C51.5001 27.6133 54.7374 26.271 58.1135 26.2695H63.4062V33.9037H59.5526C58.8733 33.9031 58.2006 34.0363 57.5729 34.2958C56.9451 34.5553 56.3746 34.9359 55.894 35.4159C55.414 35.8965 55.0334 36.4669 54.7739 37.0947C54.5145 37.7224 54.3812 38.3952 54.3818 39.0744V43.2695H63.2843V51.9525H54.455V75.1232H45.455Z" fill="white" stroke="white" stroke-width="2.43902" stroke-linecap="round" stroke-linejoin="round"/>
</g>
<defs>
<clipPath id="clip0_132_953">
<rect width="100" height="100" fill="white" transform="translate(0.333008 0.732422)"/>
</clipPath>
</defs>
</svg>
