<svg width="100" height="100" viewBox="0 0 100 100" fill="none" xmlns="http://www.w3.org/2000/svg">
<g clip-path="url(#clip0_132_1363)">
<path d="M50.0012 98.7797C76.9419 98.7797 98.7817 76.94 98.7817 49.9992C98.7817 23.0585 76.9419 1.21875 50.0012 1.21875C23.0605 1.21875 1.2207 23.0585 1.2207 49.9992C1.2207 76.94 23.0605 98.7797 50.0012 98.7797Z" fill="#1D74EC" stroke="#1D74EC" stroke-width="2.43902" stroke-miterlimit="10"/>
<path d="M45.124 74.3888V51.2181H37.0508V42.6083H44.9532V38.3156C44.9603 36.6289 45.3024 34.9604 45.9598 33.407C46.6171 31.8536 47.5766 30.4463 48.7825 29.2669C51.1691 26.8789 54.4064 25.5366 57.7825 25.5352H63.0752V33.1693H59.2215C58.5423 33.1687 57.8695 33.3019 57.2418 33.5614C56.6141 33.8209 56.0436 34.2015 55.563 34.6815C55.083 35.1621 54.7024 35.7326 54.4429 36.3603C54.1834 36.9881 54.0502 37.6608 54.0508 38.34V42.5352H62.9532V51.2181H54.124V74.3888H45.124Z" fill="white" stroke="white" stroke-width="2.43902" stroke-linecap="round" stroke-linejoin="round"/>
</g>
<defs>
<clipPath id="clip0_132_1363">
<rect width="100" height="100" fill="white"/>
</clipPath>
</defs>
</svg>
