<svg width="100" height="100" viewBox="0 0 100 100" fill="none" xmlns="http://www.w3.org/2000/svg">
<g clip-path="url(#clip0_132_1434)">
<path d="M50.0012 98.7797C76.9419 98.7797 98.7817 76.94 98.7817 49.9992C98.7817 23.0585 76.9419 1.21875 50.0012 1.21875C23.0605 1.21875 1.2207 23.0585 1.2207 49.9992C1.2207 76.94 23.0605 98.7797 50.0012 98.7797Z" fill="#F41D1F" stroke="#F41D1F" stroke-width="2.43902" stroke-miterlimit="10"/>
<path d="M64.8299 32.3887H35.1713C29.8909 32.3887 25.6104 36.6693 25.6104 41.9496V58.0716C25.6104 63.352 29.8909 67.6326 35.1713 67.6326H64.8299C70.1102 67.6326 74.3908 63.352 74.3908 58.0716V41.9496C74.3908 36.6693 70.1102 32.3887 64.8299 32.3887Z" fill="white" stroke="white" stroke-width="2.43902" stroke-linecap="round" stroke-linejoin="round"/>
<path d="M44.6362 42.3887L57.9777 50.0716L44.6362 57.6082V42.3887Z" fill="#F41D1F" stroke="#F41D1F" stroke-width="2.43902" stroke-linecap="round" stroke-linejoin="round"/>
</g>
<defs>
<clipPath id="clip0_132_1434">
<rect width="100" height="100" fill="white"/>
</clipPath>
</defs>
</svg>
