<svg width="100" height="100" viewBox="0 0 100 100" fill="none" xmlns="http://www.w3.org/2000/svg">
<g clip-path="url(#clip0_132_1210)">
<path d="M50.0012 98.7797C76.9419 98.7797 98.7817 76.94 98.7817 49.9992C98.7817 23.0585 76.9419 1.21875 50.0012 1.21875C23.0605 1.21875 1.2207 23.0585 1.2207 49.9992C1.2207 76.94 23.0605 98.7797 50.0012 98.7797Z" fill="#37AD4F" stroke="#37AD4F" stroke-width="2.43902" stroke-miterlimit="10"/>
<mask id="mask0_132_1210" style="mask-type:luminance" maskUnits="userSpaceOnUse" x="29" y="23" width="45" height="51">
<path d="M73.8563 23.0469H29.1733V73.8274H73.8563V23.0469Z" fill="white"/>
</mask>
<g mask="url(#mask0_132_1210)">
<path fill-rule="evenodd" clip-rule="evenodd" d="M59.466 62.3656H43.5148C42.7501 62.2973 42.0387 61.9452 41.5206 61.3787C41.0025 60.8123 40.7151 60.0723 40.7151 59.3046C40.7151 58.5369 41.0025 57.797 41.5206 57.2305C42.0387 56.664 42.7501 56.312 43.5148 56.2437H59.466C60.2307 56.312 60.9421 56.664 61.4602 57.2305C61.9783 57.797 62.2657 58.5369 62.2657 59.3046C62.2657 60.0723 61.9783 60.8123 61.4602 61.3787C60.9421 61.9452 60.2307 62.2973 59.466 62.3656ZM43.5148 37.8046H51.3685C52.1169 37.8991 52.8051 38.2634 53.3039 38.8293C53.8028 39.3951 54.0781 40.1235 54.0781 40.8778C54.0781 41.6321 53.8028 42.3606 53.3039 42.9264C52.8051 43.4922 52.1169 43.8565 51.3685 43.951H43.5148C42.7664 43.8565 42.0782 43.4922 41.5793 42.9264C41.0805 42.3606 40.8052 41.6321 40.8052 40.8778C40.8052 40.1235 41.0805 39.3951 41.5793 38.8293C42.0782 38.2634 42.7664 37.8991 43.5148 37.8046ZM73.7099 45.8046L73.3441 44.9266L72.7099 44.3656C71.8807 43.6339 67.8319 44.3656 66.6124 43.2681C65.8329 41.9907 65.4273 40.5204 65.4416 39.0242C65.4035 37.1346 64.9715 35.2738 64.1733 33.5607C63.1499 31.3529 61.632 29.4104 59.7372 27.8835C57.8423 26.3566 55.6214 25.2864 53.2465 24.7559H43.3441C35.5392 24.7559 29.1733 32.0729 29.1733 40.8778V59.6583C29.2709 68.2924 35.5392 75.6095 43.3441 75.6095H59.6124C67.3929 75.6095 73.7099 68.2924 73.7587 59.5363V46.5363L73.7099 45.8046Z" fill="white" stroke="#37AD4F" stroke-width="2.43902" stroke-linecap="round" stroke-linejoin="round"/>
</g>
</g>
<defs>
<clipPath id="clip0_132_1210">
<rect width="100" height="100" fill="white"/>
</clipPath>
</defs>
</svg>
