<svg width="101" height="101" viewBox="0 0 101 101" fill="none" xmlns="http://www.w3.org/2000/svg">
<g clip-path="url(#clip0_132_943)">
<mask id="mask0_132_943" style="mask-type:alpha" maskUnits="userSpaceOnUse" x="0" y="0" width="101" height="101">
<path d="M50.667 100.732C78.2812 100.732 100.667 78.3467 100.667 50.7324C100.667 23.1182 78.2812 0.732422 50.667 0.732422C23.0528 0.732422 0.666992 23.1182 0.666992 50.7324C0.666992 78.3467 23.0528 100.732 50.667 100.732Z" fill="#FA21D1"/>
</mask>
<g mask="url(#mask0_132_943)">
<circle cx="50.667" cy="50.7324" r="50" fill="#BEBEBE"/>
</g>
<path d="M63.1705 28.2324H38.1635C32.6426 28.2324 28.167 32.708 28.167 38.2289V63.2359C28.167 68.7568 32.6426 73.2324 38.1635 73.2324H63.1705C68.6914 73.2324 73.167 68.7568 73.167 63.2359V38.2289C73.167 32.708 68.6914 28.2324 63.1705 28.2324Z" stroke="white" stroke-width="3.75" stroke-miterlimit="10"/>
<path d="M50.6668 61.8394C56.8011 61.8394 61.774 56.8665 61.774 50.7322C61.774 44.5979 56.8011 39.625 50.6668 39.625C44.5324 39.625 39.5596 44.5979 39.5596 50.7322C39.5596 56.8665 44.5324 61.8394 50.6668 61.8394Z" stroke="white" stroke-width="3.75" stroke-miterlimit="10"/>
<path d="M63.8688 40.1946C65.6916 40.1946 67.1692 38.7169 67.1692 36.8942C67.1692 35.0714 65.6916 33.5938 63.8688 33.5938C62.046 33.5938 60.5684 35.0714 60.5684 36.8942C60.5684 38.7169 62.046 40.1946 63.8688 40.1946Z" fill="white"/>
</g>
<defs>
<clipPath id="clip0_132_943">
<rect width="100" height="100" fill="white" transform="translate(0.666992 0.732422)"/>
</clipPath>
</defs>
</svg>
