<svg width="100" height="101" viewBox="0 0 100 101" fill="none" xmlns="http://www.w3.org/2000/svg">
<g clip-path="url(#clip0_132_934)">
<path d="M50.0002 99.5141C76.9409 99.5141 98.7807 77.6743 98.7807 50.7336C98.7807 23.7929 76.9409 1.95312 50.0002 1.95312C23.0595 1.95312 1.21973 23.7929 1.21973 50.7336C1.21973 77.6743 23.0595 99.5141 50.0002 99.5141Z" fill="#BEBEBE" stroke="#BEBEBE" stroke-width="2.43902" stroke-miterlimit="10"/>
<mask id="mask0_132_934" style="mask-type:luminance" maskUnits="userSpaceOnUse" x="29" y="23" width="45" height="52">
<path d="M73.8538 23.7793H29.1709V74.5598H73.8538V23.7793Z" fill="white"/>
</mask>
<g mask="url(#mask0_132_934)">
<path fill-rule="evenodd" clip-rule="evenodd" d="M59.4636 63.098H43.5124C42.7477 63.0297 42.0363 62.6777 41.5182 62.1112C41 61.5447 40.7127 60.8048 40.7127 60.0371C40.7127 59.2694 41 58.5294 41.5182 57.963C42.0363 57.3965 42.7477 57.0444 43.5124 56.9761H59.4636C60.2282 57.0444 60.9396 57.3965 61.4578 57.963C61.9759 58.5294 62.2632 59.2694 62.2632 60.0371C62.2632 60.8048 61.9759 61.5447 61.4578 62.1112C60.9396 62.6777 60.2282 63.0297 59.4636 63.098ZM43.5124 38.5371H51.366C52.1144 38.6315 52.8026 38.9959 53.3015 39.5617C53.8004 40.1275 54.0756 40.8559 54.0756 41.6102C54.0756 42.3646 53.8004 43.093 53.3015 43.6588C52.8026 44.2246 52.1144 44.5889 51.366 44.6834H43.5124C42.764 44.5889 42.0758 44.2246 41.5769 43.6588C41.078 43.093 40.8027 42.3646 40.8027 41.6102C40.8027 40.8559 41.078 40.1275 41.5769 39.5617C42.0758 38.9959 42.764 38.6315 43.5124 38.5371ZM73.7075 46.5371L73.3416 45.659L72.7075 45.098C71.8782 44.3663 67.8294 45.098 66.6099 44.0005C65.8305 42.7232 65.4249 41.2529 65.4392 39.7566C65.401 37.867 64.9691 36.0063 64.1709 34.2932C63.1475 32.0854 61.6296 30.1428 59.7347 28.6159C57.8399 27.089 55.619 26.0189 53.2441 25.4883H43.3416C35.5368 25.4883 29.1709 32.8054 29.1709 41.6102V60.3907C29.2685 69.0249 35.5368 76.3419 43.3416 76.3419H59.6099C67.3904 76.3419 73.7075 69.0249 73.7563 60.2688V47.2688L73.7075 46.5371Z" fill="white" stroke="#BEBEBE" stroke-width="2.43902" stroke-linecap="round" stroke-linejoin="round"/>
</g>
</g>
<defs>
<clipPath id="clip0_132_934">
<rect width="100" height="100" fill="white" transform="translate(0 0.732422)"/>
</clipPath>
</defs>
</svg>
