<svg width="27" height="28" viewBox="0 0 27 28" fill="none" xmlns="http://www.w3.org/2000/svg">
<path d="M12.4527 3.5142C13.7444 3.5119 15.0238 3.76462 16.2176 4.25786C17.4114 4.7511 18.4961 5.47517 19.4095 6.38853C20.3228 7.30189 21.0469 8.38657 21.5401 9.58037C22.0334 10.7742 22.2861 12.0536 22.2838 13.3453C22.2838 16.2486 21.0913 19.0216 18.8789 20.9032C18.7152 21.019 18.5456 21.1264 18.3709 21.2249L19.9956 23.3144L22.9392 27.1088H26.2162L21.9092 21.5713C23.8879 19.2878 24.9762 16.3669 24.9741 13.3453C24.9741 6.45977 19.3376 0.892582 12.4527 0.892582C10.817 0.891283 9.19715 1.2125 7.68573 1.83784C6.17431 2.46319 4.80102 3.3804 3.64442 4.537C2.48782 5.6936 1.57061 7.06689 0.945265 8.57831C0.319918 10.0897 -0.00129469 11.7096 3.92184e-06 13.3453C3.92184e-06 20.2308 5.60215 25.8667 12.4871 25.8667C13.6233 25.8677 14.7543 25.7135 15.8488 25.4084L17.0405 27.1088H20.3176L15.3754 20.1697C16.8193 19.6354 18.0295 18.6106 18.7945 17.2746C19.5595 15.9385 19.8306 14.3761 19.5605 12.8604C19.2904 11.3447 18.4962 9.97208 17.3168 8.9825C16.1374 7.99293 14.6477 7.4493 13.1081 7.44664H9.17568V10.0683H13.1081C14.1511 10.0683 15.1513 10.4826 15.8888 11.22C16.6262 11.9575 17.0405 12.9577 17.0405 14.0007C17.0405 15.0436 16.6262 16.0439 15.8888 16.7813C15.1513 17.5188 14.1511 17.9331 13.1081 17.9331H10.4865L14.2005 23.1012C13.6347 23.2006 13.0614 23.251 12.487 23.2516C7.04343 23.2515 2.62163 18.7886 2.62163 13.3453C2.61932 12.0536 2.87204 10.7742 3.36528 9.58037C3.85853 8.38657 4.58259 7.30189 5.49595 6.38853C6.40931 5.47517 7.49399 4.7511 8.68779 4.25786C9.88159 3.76462 11.161 3.5119 12.4527 3.5142Z" fill="white"/>
</svg>
